<mxfile host="Electron" modified="2024-04-22T21:29:07.430Z" agent="Mozilla/5.0 (Windows NT 10.0; Win64; x64) AppleWebKit/537.36 (KHTML, like Gecko) draw.io/24.2.5 Chrome/120.0.6099.109 Electron/28.1.0 Safari/537.36" etag="F4-CrNk8y9u-heJ_lUTW" version="24.2.5" type="device">
  <diagram name="Página-1" id="aNPDeRTkwJ0dypFAPGPm">
    <mxGraphModel dx="1420" dy="830" grid="1" gridSize="10" guides="1" tooltips="1" connect="1" arrows="1" fold="1" page="1" pageScale="1" pageWidth="827" pageHeight="1169" background="#CCE5FF" math="0" shadow="0">
      <root>
        <mxCell id="0" />
        <mxCell id="1" parent="0" />
        <mxCell id="sZa0EjRp5ej5X9bCO8AT-1" value="&lt;b style=&quot;font-size: 16px;&quot;&gt;&lt;font style=&quot;font-size: 16px;&quot; color=&quot;#000000&quot; face=&quot;Comic Sans MS&quot;&gt;10 Hacer un programa para ingresar una lista de números que finaliza cuando se ingresa un cero, luego informar el máximo y el mínimo.&lt;br&gt;Ejemplo A: 10, 20, -5, 30,-15, 5, 42, 2, 22, -13, 0.&lt;br&gt;Se listará Máximo 42 Mínimo -15.&lt;br&gt;Ejemplo B: 10, 20, 5, 30, 15, 5, 42, 8, 22, 13, 0.&lt;br&gt;Se listará Máximo 42 Mínimo 5.&lt;br&gt;Ejemplo C: -10, -20, -5, -30, -15, -12, -42, -8, -22, -13, 0.&lt;br&gt;Se listará Máximo -5 Mínimo -42.&lt;br&gt;Observe que los ejemplos B y C dejan en claro que la suposición de que el máximo “seguramente” es un positivo y el mínimo “seguramente” es un negativo, es incorrecta.&lt;/font&gt;&lt;/b&gt;" style="text;whiteSpace=wrap;html=1;fontFamily=Architects Daughter;fontSource=https%3A%2F%2Ffonts.googleapis.com%2Fcss%3Ffamily%3DArchitects%2BDaughter;" vertex="1" parent="1">
          <mxGeometry x="30" width="780" height="220" as="geometry" />
        </mxCell>
        <mxCell id="sZa0EjRp5ej5X9bCO8AT-204" value="" style="group;aspect=fixed;" vertex="1" connectable="0" parent="1">
          <mxGeometry x="121.5" y="260" width="597" height="990" as="geometry" />
        </mxCell>
        <mxCell id="sZa0EjRp5ej5X9bCO8AT-130" value="" style="group;aspect=fixed;" vertex="1" connectable="0" parent="sZa0EjRp5ej5X9bCO8AT-204">
          <mxGeometry y="230" width="597" height="593" as="geometry" />
        </mxCell>
        <mxCell id="sZa0EjRp5ej5X9bCO8AT-132" value="" style="group;aspect=fixed;" vertex="1" connectable="0" parent="sZa0EjRp5ej5X9bCO8AT-130">
          <mxGeometry y="3" width="531" height="590" as="geometry" />
        </mxCell>
        <mxCell id="sZa0EjRp5ej5X9bCO8AT-76" value="" style="whiteSpace=wrap;html=1;rounded=0;labelBackgroundColor=none;strokeColor=#1A1A1A;strokeWidth=3;align=center;verticalAlign=middle;fontFamily=Helvetica;fontSize=12;fontColor=default;fillColor=#d5e8d4;" vertex="1" parent="sZa0EjRp5ej5X9bCO8AT-132">
          <mxGeometry width="530" height="590" as="geometry" />
        </mxCell>
        <mxCell id="sZa0EjRp5ej5X9bCO8AT-77" value="" style="edgeStyle=none;orthogonalLoop=1;jettySize=auto;html=1;rounded=0;strokeColor=#000000;fontFamily=Helvetica;fontSize=12;fontColor=default;fillColor=#B2C9AB;startArrow=none;startFill=0;endArrow=none;endFill=0;endSize=7;strokeWidth=2;" edge="1" parent="sZa0EjRp5ej5X9bCO8AT-132">
          <mxGeometry width="80" relative="1" as="geometry">
            <mxPoint x="530" y="45.48387096774195" as="sourcePoint" />
            <mxPoint y="45.48387096774195" as="targetPoint" />
            <Array as="points" />
          </mxGeometry>
        </mxCell>
        <mxCell id="sZa0EjRp5ej5X9bCO8AT-129" value="&lt;b&gt;&lt;font color=&quot;#000000&quot; style=&quot;font-size: 18px;&quot; face=&quot;Comic Sans MS&quot;&gt;num != 0&lt;/font&gt;&lt;/b&gt;" style="text;strokeColor=none;align=center;fillColor=none;html=1;verticalAlign=middle;whiteSpace=wrap;rounded=0;fontFamily=Architects Daughter;fontSource=https://fonts.googleapis.com/css?family=Architects+Daughter;container=0;" vertex="1" parent="sZa0EjRp5ej5X9bCO8AT-132">
          <mxGeometry x="210" y="5" width="110" height="35" as="geometry" />
        </mxCell>
        <mxCell id="sZa0EjRp5ej5X9bCO8AT-79" value="" style="group;aspect=fixed;" vertex="1" connectable="0" parent="sZa0EjRp5ej5X9bCO8AT-132">
          <mxGeometry x="24" y="63" width="507" height="510" as="geometry" />
        </mxCell>
        <mxCell id="sZa0EjRp5ej5X9bCO8AT-80" value="" style="group;aspect=fixed;" vertex="1" connectable="0" parent="sZa0EjRp5ej5X9bCO8AT-79">
          <mxGeometry x="105" y="470" width="130" height="40" as="geometry" />
        </mxCell>
        <mxCell id="sZa0EjRp5ej5X9bCO8AT-81" value="" style="shape=trapezoid;perimeter=trapezoidPerimeter;whiteSpace=wrap;html=1;fixedSize=1;rounded=0;labelBackgroundColor=none;strokeColor=#121211;strokeWidth=2;align=center;verticalAlign=middle;fontFamily=Helvetica;fontSize=12;fontColor=default;fillColor=#d5e8d4;direction=west;container=0;" vertex="1" parent="sZa0EjRp5ej5X9bCO8AT-80">
          <mxGeometry width="130" height="40" as="geometry">
            <mxRectangle x="-1020" y="-650" width="50" height="40" as="alternateBounds" />
          </mxGeometry>
        </mxCell>
        <mxCell id="sZa0EjRp5ej5X9bCO8AT-82" value="&lt;b&gt;&lt;font color=&quot;#000000&quot; style=&quot;font-size: 17px;&quot; face=&quot;Comic Sans MS&quot;&gt;num&lt;/font&gt;&lt;/b&gt;" style="text;strokeColor=none;align=center;fillColor=none;html=1;verticalAlign=middle;whiteSpace=wrap;rounded=0;fontFamily=Architects Daughter;fontSource=https://fonts.googleapis.com/css?family=Architects+Daughter;container=0;" vertex="1" parent="sZa0EjRp5ej5X9bCO8AT-80">
          <mxGeometry x="20" width="90" height="40" as="geometry" />
        </mxCell>
        <mxCell id="sZa0EjRp5ej5X9bCO8AT-83" value="" style="group;aspect=fixed;" vertex="1" connectable="0" parent="sZa0EjRp5ej5X9bCO8AT-79">
          <mxGeometry x="117" width="100" height="110" as="geometry" />
        </mxCell>
        <mxCell id="sZa0EjRp5ej5X9bCO8AT-84" value="" style="rhombus;whiteSpace=wrap;html=1;rounded=0;labelBackgroundColor=none;strokeColor=#0F140C;strokeWidth=2;align=center;verticalAlign=middle;fontFamily=Helvetica;fontSize=12;fontColor=default;fillColor=#d5e8d4;" vertex="1" parent="sZa0EjRp5ej5X9bCO8AT-83">
          <mxGeometry width="100" height="110" as="geometry" />
        </mxCell>
        <mxCell id="sZa0EjRp5ej5X9bCO8AT-85" value="&lt;b&gt;&lt;font color=&quot;#000000&quot; style=&quot;font-size: 16px;&quot; face=&quot;Comic Sans MS&quot;&gt;bandera&lt;/font&gt;&lt;/b&gt;" style="text;strokeColor=none;align=center;fillColor=none;html=1;verticalAlign=middle;whiteSpace=wrap;rounded=0;fontFamily=Architects Daughter;fontSource=https://fonts.googleapis.com/css?family=Architects+Daughter;container=0;" vertex="1" parent="sZa0EjRp5ej5X9bCO8AT-83">
          <mxGeometry x="5" y="35" width="90" height="40" as="geometry" />
        </mxCell>
        <mxCell id="sZa0EjRp5ej5X9bCO8AT-86" value="" style="group;aspect=fixed;" vertex="1" connectable="0" parent="sZa0EjRp5ej5X9bCO8AT-79">
          <mxGeometry x="217" y="100" width="100" height="110" as="geometry" />
        </mxCell>
        <mxCell id="sZa0EjRp5ej5X9bCO8AT-87" value="" style="rhombus;whiteSpace=wrap;html=1;rounded=0;labelBackgroundColor=none;strokeColor=#0F140C;strokeWidth=2;align=center;verticalAlign=middle;fontFamily=Helvetica;fontSize=12;fontColor=default;fillColor=#d5e8d4;" vertex="1" parent="sZa0EjRp5ej5X9bCO8AT-86">
          <mxGeometry width="100" height="110" as="geometry" />
        </mxCell>
        <mxCell id="sZa0EjRp5ej5X9bCO8AT-88" value="&lt;b style=&quot;font-size: 16px;&quot;&gt;&lt;font color=&quot;#000000&quot; style=&quot;font-size: 16px;&quot; face=&quot;Comic Sans MS&quot;&gt;num&lt;/font&gt;&lt;/b&gt;&lt;div style=&quot;font-size: 16px;&quot;&gt;&lt;b&gt;&lt;font color=&quot;#000000&quot; style=&quot;font-size: 16px;&quot; face=&quot;Comic Sans MS&quot;&gt;&amp;gt;&lt;/font&gt;&lt;/b&gt;&lt;/div&gt;&lt;div style=&quot;font-size: 16px;&quot;&gt;&lt;b&gt;&lt;font color=&quot;#000000&quot; style=&quot;font-size: 16px;&quot; face=&quot;Comic Sans MS&quot;&gt;maximo&lt;/font&gt;&lt;/b&gt;&lt;/div&gt;" style="text;strokeColor=none;align=center;fillColor=none;html=1;verticalAlign=middle;whiteSpace=wrap;rounded=0;fontFamily=Architects Daughter;fontSource=https://fonts.googleapis.com/css?family=Architects+Daughter;container=0;" vertex="1" parent="sZa0EjRp5ej5X9bCO8AT-86">
          <mxGeometry x="15" y="20" width="70" height="55" as="geometry" />
        </mxCell>
        <mxCell id="sZa0EjRp5ej5X9bCO8AT-89" value="" style="group;aspect=fixed;" vertex="1" connectable="0" parent="sZa0EjRp5ej5X9bCO8AT-79">
          <mxGeometry x="340" y="200" width="100" height="110" as="geometry" />
        </mxCell>
        <mxCell id="sZa0EjRp5ej5X9bCO8AT-90" value="" style="rhombus;whiteSpace=wrap;html=1;rounded=0;labelBackgroundColor=none;strokeColor=#0F140C;strokeWidth=2;align=center;verticalAlign=middle;fontFamily=Helvetica;fontSize=12;fontColor=default;fillColor=#d5e8d4;" vertex="1" parent="sZa0EjRp5ej5X9bCO8AT-89">
          <mxGeometry width="100" height="110" as="geometry" />
        </mxCell>
        <mxCell id="sZa0EjRp5ej5X9bCO8AT-91" value="&lt;b style=&quot;font-size: 16px;&quot;&gt;&lt;font color=&quot;#000000&quot; style=&quot;font-size: 16px;&quot; face=&quot;Comic Sans MS&quot;&gt;num&lt;/font&gt;&lt;/b&gt;&lt;div style=&quot;font-size: 16px;&quot;&gt;&lt;font style=&quot;font-size: 16px;&quot; face=&quot;Comic Sans MS&quot; color=&quot;#000000&quot;&gt;&lt;b&gt;&amp;lt;&lt;/b&gt;&lt;/font&gt;&lt;/div&gt;&lt;div style=&quot;font-size: 16px;&quot;&gt;&lt;font style=&quot;font-size: 16px;&quot; face=&quot;Comic Sans MS&quot; color=&quot;#000000&quot;&gt;&lt;b style=&quot;&quot;&gt;minimo&lt;/b&gt;&lt;/font&gt;&lt;/div&gt;" style="text;strokeColor=none;align=center;fillColor=none;html=1;verticalAlign=middle;whiteSpace=wrap;rounded=0;fontFamily=Architects Daughter;fontSource=https://fonts.googleapis.com/css?family=Architects+Daughter;container=0;" vertex="1" parent="sZa0EjRp5ej5X9bCO8AT-89">
          <mxGeometry x="15" y="20" width="70" height="55" as="geometry" />
        </mxCell>
        <mxCell id="sZa0EjRp5ej5X9bCO8AT-92" value="" style="group;aspect=fixed;" vertex="1" connectable="0" parent="sZa0EjRp5ej5X9bCO8AT-79">
          <mxGeometry y="100" width="130" height="60" as="geometry" />
        </mxCell>
        <mxCell id="sZa0EjRp5ej5X9bCO8AT-93" value="" style="rounded=0;whiteSpace=wrap;html=1;labelBackgroundColor=none;strokeColor=#0f100e;strokeWidth=2;align=center;verticalAlign=middle;fontFamily=Helvetica;fontSize=12;fontColor=default;fillColor=#d5e8d4;" vertex="1" parent="sZa0EjRp5ej5X9bCO8AT-92">
          <mxGeometry width="130" height="60" as="geometry" />
        </mxCell>
        <mxCell id="sZa0EjRp5ej5X9bCO8AT-94" value="&lt;b style=&quot;font-size: 14px;&quot;&gt;&lt;font color=&quot;#000000&quot; style=&quot;font-size: 14px;&quot; face=&quot;Comic Sans MS&quot;&gt;maximo = num&lt;/font&gt;&lt;/b&gt;&lt;div style=&quot;font-size: 14px;&quot;&gt;&lt;b&gt;&lt;font color=&quot;#000000&quot; style=&quot;font-size: 14px;&quot; face=&quot;Comic Sans MS&quot;&gt;minimo = num&lt;/font&gt;&lt;/b&gt;&lt;/div&gt;&lt;div style=&quot;font-size: 14px;&quot;&gt;&lt;b&gt;&lt;font color=&quot;#000000&quot; style=&quot;font-size: 14px;&quot; face=&quot;Comic Sans MS&quot;&gt;bandera = false&lt;/font&gt;&lt;/b&gt;&lt;/div&gt;" style="text;strokeColor=none;align=center;fillColor=none;html=1;verticalAlign=middle;whiteSpace=wrap;rounded=0;fontFamily=Architects Daughter;fontSource=https://fonts.googleapis.com/css?family=Architects+Daughter;" vertex="1" parent="sZa0EjRp5ej5X9bCO8AT-92">
          <mxGeometry width="130" height="60" as="geometry" />
        </mxCell>
        <mxCell id="sZa0EjRp5ej5X9bCO8AT-95" value="" style="group;aspect=fixed;" vertex="1" connectable="0" parent="sZa0EjRp5ej5X9bCO8AT-79">
          <mxGeometry x="117" y="210" width="130" height="40" as="geometry" />
        </mxCell>
        <mxCell id="sZa0EjRp5ej5X9bCO8AT-96" value="" style="rounded=0;whiteSpace=wrap;html=1;labelBackgroundColor=none;strokeColor=#0f100e;strokeWidth=2;align=center;verticalAlign=middle;fontFamily=Helvetica;fontSize=12;fontColor=default;fillColor=#d5e8d4;container=0;" vertex="1" parent="sZa0EjRp5ej5X9bCO8AT-95">
          <mxGeometry width="130" height="40" as="geometry" />
        </mxCell>
        <mxCell id="sZa0EjRp5ej5X9bCO8AT-97" value="&lt;font size=&quot;1&quot; face=&quot;Comic Sans MS&quot; color=&quot;#000000&quot;&gt;&lt;b style=&quot;font-size: 16px;&quot;&gt;maximo = num&lt;/b&gt;&lt;/font&gt;" style="text;strokeColor=none;align=center;fillColor=none;html=1;verticalAlign=middle;whiteSpace=wrap;rounded=0;fontFamily=Architects Daughter;fontSource=https://fonts.googleapis.com/css?family=Architects+Daughter;container=0;" vertex="1" parent="sZa0EjRp5ej5X9bCO8AT-95">
          <mxGeometry x="6" y="10" width="120" height="20" as="geometry" />
        </mxCell>
        <mxCell id="sZa0EjRp5ej5X9bCO8AT-98" value="" style="group;aspect=fixed;" vertex="1" connectable="0" parent="sZa0EjRp5ej5X9bCO8AT-79">
          <mxGeometry x="240" y="305" width="130" height="40" as="geometry" />
        </mxCell>
        <mxCell id="sZa0EjRp5ej5X9bCO8AT-99" value="" style="rounded=0;whiteSpace=wrap;html=1;labelBackgroundColor=none;strokeColor=#0f100e;strokeWidth=2;align=center;verticalAlign=middle;fontFamily=Helvetica;fontSize=12;fontColor=default;fillColor=#d5e8d4;" vertex="1" parent="sZa0EjRp5ej5X9bCO8AT-98">
          <mxGeometry width="130" height="40" as="geometry" />
        </mxCell>
        <mxCell id="sZa0EjRp5ej5X9bCO8AT-100" value="&lt;font size=&quot;1&quot; face=&quot;Comic Sans MS&quot; color=&quot;#000000&quot;&gt;&lt;b style=&quot;font-size: 16px;&quot;&gt;minimo = num&lt;/b&gt;&lt;/font&gt;" style="text;strokeColor=none;align=center;fillColor=none;html=1;verticalAlign=middle;whiteSpace=wrap;rounded=0;fontFamily=Architects Daughter;fontSource=https://fonts.googleapis.com/css?family=Architects+Daughter;" vertex="1" parent="sZa0EjRp5ej5X9bCO8AT-98">
          <mxGeometry x="5" y="10" width="120" height="20" as="geometry" />
        </mxCell>
        <mxCell id="sZa0EjRp5ej5X9bCO8AT-101" value="" style="line;strokeWidth=2;direction=south;html=1;hachureGap=4;fontFamily=Architects Daughter;fontSource=https://fonts.googleapis.com/css?family=Architects+Daughter;strokeColor=#000000;" vertex="1" parent="sZa0EjRp5ej5X9bCO8AT-79">
          <mxGeometry x="170" y="155" width="10" height="55" as="geometry" />
        </mxCell>
        <mxCell id="sZa0EjRp5ej5X9bCO8AT-102" value="" style="line;strokeWidth=2;direction=south;html=1;hachureGap=4;fontFamily=Architects Daughter;fontSource=https://fonts.googleapis.com/css?family=Architects+Daughter;strokeColor=#000000;" vertex="1" parent="sZa0EjRp5ej5X9bCO8AT-79">
          <mxGeometry x="297" y="345" width="10" height="35" as="geometry" />
        </mxCell>
        <mxCell id="sZa0EjRp5ej5X9bCO8AT-103" value="" style="line;strokeWidth=2;direction=south;html=1;hachureGap=4;fontFamily=Architects Daughter;fontSource=https://fonts.googleapis.com/css?family=Architects+Daughter;strokeColor=#000000;" vertex="1" parent="sZa0EjRp5ej5X9bCO8AT-79">
          <mxGeometry x="385" y="152.5" width="10" height="50" as="geometry" />
        </mxCell>
        <mxCell id="sZa0EjRp5ej5X9bCO8AT-104" value="" style="line;strokeWidth=2;direction=south;html=1;hachureGap=4;fontFamily=Architects Daughter;fontSource=https://fonts.googleapis.com/css?family=Architects+Daughter;strokeColor=#000000;" vertex="1" parent="sZa0EjRp5ej5X9bCO8AT-79">
          <mxGeometry x="165" y="440" width="10" height="30" as="geometry" />
        </mxCell>
        <mxCell id="sZa0EjRp5ej5X9bCO8AT-105" value="" style="line;strokeWidth=2;direction=south;html=1;hachureGap=4;fontFamily=Architects Daughter;fontSource=https://fonts.googleapis.com/css?family=Architects+Daughter;strokeColor=#000000;" vertex="1" parent="sZa0EjRp5ej5X9bCO8AT-79">
          <mxGeometry x="170" y="250" width="10" height="160" as="geometry" />
        </mxCell>
        <mxCell id="sZa0EjRp5ej5X9bCO8AT-106" value="" style="line;strokeWidth=2;direction=south;html=1;hachureGap=4;fontFamily=Architects Daughter;fontSource=https://fonts.googleapis.com/css?family=Architects+Daughter;strokeColor=#000000;" vertex="1" parent="sZa0EjRp5ej5X9bCO8AT-79">
          <mxGeometry x="477" y="254" width="10" height="126" as="geometry" />
        </mxCell>
        <mxCell id="sZa0EjRp5ej5X9bCO8AT-107" value="" style="line;strokeWidth=2;direction=south;html=1;hachureGap=4;fontFamily=Architects Daughter;fontSource=https://fonts.googleapis.com/css?family=Architects+Daughter;strokeColor=#000000;" vertex="1" parent="sZa0EjRp5ej5X9bCO8AT-79">
          <mxGeometry x="269" y="410" width="10" height="30" as="geometry" />
        </mxCell>
        <mxCell id="sZa0EjRp5ej5X9bCO8AT-108" value="" style="line;strokeWidth=2;direction=south;html=1;hachureGap=4;fontFamily=Architects Daughter;fontSource=https://fonts.googleapis.com/css?family=Architects+Daughter;strokeColor=#000000;" vertex="1" parent="sZa0EjRp5ej5X9bCO8AT-79">
          <mxGeometry x="297" y="255" width="10" height="50" as="geometry" />
        </mxCell>
        <mxCell id="sZa0EjRp5ej5X9bCO8AT-109" value="" style="line;strokeWidth=2;direction=south;html=1;hachureGap=4;fontFamily=Architects Daughter;fontSource=https://fonts.googleapis.com/css?family=Architects+Daughter;strokeColor=#000000;" vertex="1" parent="sZa0EjRp5ej5X9bCO8AT-79">
          <mxGeometry x="262" y="54" width="10" height="50" as="geometry" />
        </mxCell>
        <mxCell id="sZa0EjRp5ej5X9bCO8AT-110" value="" style="line;strokeWidth=2;direction=south;html=1;hachureGap=4;fontFamily=Architects Daughter;fontSource=https://fonts.googleapis.com/css?family=Architects+Daughter;strokeColor=#000000;" vertex="1" parent="sZa0EjRp5ej5X9bCO8AT-79">
          <mxGeometry x="61" y="54" width="10" height="46" as="geometry" />
        </mxCell>
        <mxCell id="sZa0EjRp5ej5X9bCO8AT-111" value="" style="line;strokeWidth=2;direction=south;html=1;hachureGap=4;fontFamily=Architects Daughter;fontSource=https://fonts.googleapis.com/css?family=Architects+Daughter;strokeColor=#000000;" vertex="1" parent="sZa0EjRp5ej5X9bCO8AT-79">
          <mxGeometry x="385" y="375" width="10" height="35" as="geometry" />
        </mxCell>
        <mxCell id="sZa0EjRp5ej5X9bCO8AT-112" value="" style="line;strokeWidth=2;direction=south;html=1;hachureGap=4;fontFamily=Architects Daughter;fontSource=https://fonts.googleapis.com/css?family=Architects+Daughter;strokeColor=#000000;" vertex="1" parent="sZa0EjRp5ej5X9bCO8AT-79">
          <mxGeometry x="63" y="160" width="10" height="280" as="geometry" />
        </mxCell>
        <mxCell id="sZa0EjRp5ej5X9bCO8AT-113" value="" style="line;strokeWidth=2;html=1;perimeter=backbonePerimeter;points=[];outlineConnect=0;hachureGap=4;fontFamily=Architects Daughter;fontSource=https://fonts.googleapis.com/css?family=Architects+Daughter;strokeColor=#000000;" vertex="1" parent="sZa0EjRp5ej5X9bCO8AT-79">
          <mxGeometry x="174" y="405" width="216" height="10" as="geometry" />
        </mxCell>
        <mxCell id="sZa0EjRp5ej5X9bCO8AT-114" value="" style="line;strokeWidth=2;html=1;perimeter=backbonePerimeter;points=[];outlineConnect=0;hachureGap=4;fontFamily=Architects Daughter;fontSource=https://fonts.googleapis.com/css?family=Architects+Daughter;strokeColor=#000000;" vertex="1" parent="sZa0EjRp5ej5X9bCO8AT-79">
          <mxGeometry x="440" y="250" width="40" height="10" as="geometry" />
        </mxCell>
        <mxCell id="sZa0EjRp5ej5X9bCO8AT-115" value="" style="line;strokeWidth=2;html=1;perimeter=backbonePerimeter;points=[];outlineConnect=0;hachureGap=4;fontFamily=Architects Daughter;fontSource=https://fonts.googleapis.com/css?family=Architects+Daughter;strokeColor=#000000;" vertex="1" parent="sZa0EjRp5ej5X9bCO8AT-79">
          <mxGeometry x="170" y="150" width="47" height="10" as="geometry" />
        </mxCell>
        <mxCell id="sZa0EjRp5ej5X9bCO8AT-116" value="" style="line;strokeWidth=2;html=1;perimeter=backbonePerimeter;points=[];outlineConnect=0;hachureGap=4;fontFamily=Architects Daughter;fontSource=https://fonts.googleapis.com/css?family=Architects+Daughter;strokeColor=#000000;" vertex="1" parent="sZa0EjRp5ej5X9bCO8AT-79">
          <mxGeometry x="317" y="150" width="73" height="10" as="geometry" />
        </mxCell>
        <mxCell id="sZa0EjRp5ej5X9bCO8AT-117" value="" style="line;strokeWidth=2;html=1;perimeter=backbonePerimeter;points=[];outlineConnect=0;hachureGap=4;fontFamily=Architects Daughter;fontSource=https://fonts.googleapis.com/css?family=Architects+Daughter;strokeColor=#000000;" vertex="1" parent="sZa0EjRp5ej5X9bCO8AT-79">
          <mxGeometry x="217" y="50" width="50" height="10" as="geometry" />
        </mxCell>
        <mxCell id="sZa0EjRp5ej5X9bCO8AT-118" value="" style="line;strokeWidth=2;html=1;perimeter=backbonePerimeter;points=[];outlineConnect=0;hachureGap=4;fontFamily=Architects Daughter;fontSource=https://fonts.googleapis.com/css?family=Architects+Daughter;strokeColor=#000000;" vertex="1" parent="sZa0EjRp5ej5X9bCO8AT-79">
          <mxGeometry x="67" y="50" width="50" height="10" as="geometry" />
        </mxCell>
        <mxCell id="sZa0EjRp5ej5X9bCO8AT-119" value="" style="line;strokeWidth=2;html=1;perimeter=backbonePerimeter;points=[];outlineConnect=0;hachureGap=4;fontFamily=Architects Daughter;fontSource=https://fonts.googleapis.com/css?family=Architects+Daughter;strokeColor=#000000;" vertex="1" parent="sZa0EjRp5ej5X9bCO8AT-79">
          <mxGeometry x="300" y="372" width="180" height="10" as="geometry" />
        </mxCell>
        <mxCell id="sZa0EjRp5ej5X9bCO8AT-120" value="" style="line;strokeWidth=2;html=1;perimeter=backbonePerimeter;points=[];outlineConnect=0;hachureGap=4;fontFamily=Architects Daughter;fontSource=https://fonts.googleapis.com/css?family=Architects+Daughter;strokeColor=#000000;" vertex="1" parent="sZa0EjRp5ej5X9bCO8AT-79">
          <mxGeometry x="64" y="436" width="213" height="10" as="geometry" />
        </mxCell>
        <mxCell id="sZa0EjRp5ej5X9bCO8AT-121" value="" style="line;strokeWidth=2;html=1;perimeter=backbonePerimeter;points=[];outlineConnect=0;hachureGap=4;fontFamily=Architects Daughter;fontSource=https://fonts.googleapis.com/css?family=Architects+Daughter;strokeColor=#000000;" vertex="1" parent="sZa0EjRp5ej5X9bCO8AT-79">
          <mxGeometry x="300" y="250" width="40" height="10" as="geometry" />
        </mxCell>
        <mxCell id="sZa0EjRp5ej5X9bCO8AT-209" value="&lt;font size=&quot;1&quot; face=&quot;Comic Sans MS&quot; color=&quot;#000000&quot;&gt;&lt;b style=&quot;font-size: 14px;&quot;&gt;V&lt;/b&gt;&lt;/font&gt;" style="text;strokeColor=none;align=center;fillColor=none;html=1;verticalAlign=middle;whiteSpace=wrap;rounded=0;fontFamily=Architects Daughter;fontSource=https://fonts.googleapis.com/css?family=Architects+Daughter;" vertex="1" parent="sZa0EjRp5ej5X9bCO8AT-79">
          <mxGeometry x="42" y="37" width="50" height="20" as="geometry" />
        </mxCell>
        <mxCell id="sZa0EjRp5ej5X9bCO8AT-206" value="&lt;font size=&quot;1&quot; face=&quot;Comic Sans MS&quot; color=&quot;#000000&quot;&gt;&lt;b style=&quot;font-size: 14px;&quot;&gt;F&lt;/b&gt;&lt;/font&gt;" style="text;strokeColor=none;align=center;fillColor=none;html=1;verticalAlign=middle;whiteSpace=wrap;rounded=0;fontFamily=Architects Daughter;fontSource=https://fonts.googleapis.com/css?family=Architects+Daughter;" vertex="1" parent="sZa0EjRp5ej5X9bCO8AT-79">
          <mxGeometry x="453" y="237" width="50" height="20" as="geometry" />
        </mxCell>
        <mxCell id="sZa0EjRp5ej5X9bCO8AT-134" value="" style="line;strokeWidth=2;direction=south;html=1;hachureGap=4;fontFamily=Architects Daughter;fontSource=https://fonts.googleapis.com/css?family=Architects+Daughter;strokeColor=#000000;" vertex="1" parent="sZa0EjRp5ej5X9bCO8AT-132">
          <mxGeometry x="260" y="-33" width="10" height="33" as="geometry" />
        </mxCell>
        <mxCell id="sZa0EjRp5ej5X9bCO8AT-205" value="&lt;font size=&quot;1&quot; face=&quot;Comic Sans MS&quot; color=&quot;#000000&quot;&gt;&lt;b style=&quot;font-size: 14px;&quot;&gt;F&lt;/b&gt;&lt;/font&gt;" style="text;strokeColor=none;align=center;fillColor=none;html=1;verticalAlign=middle;whiteSpace=wrap;rounded=0;fontFamily=Architects Daughter;fontSource=https://fonts.googleapis.com/css?family=Architects+Daughter;" vertex="1" parent="sZa0EjRp5ej5X9bCO8AT-132">
          <mxGeometry x="262" y="100" width="50" height="20" as="geometry" />
        </mxCell>
        <mxCell id="sZa0EjRp5ej5X9bCO8AT-207" value="&lt;font size=&quot;1&quot; face=&quot;Comic Sans MS&quot; color=&quot;#000000&quot;&gt;&lt;b style=&quot;font-size: 14px;&quot;&gt;F&lt;/b&gt;&lt;/font&gt;" style="text;strokeColor=none;align=center;fillColor=none;html=1;verticalAlign=middle;whiteSpace=wrap;rounded=0;fontFamily=Architects Daughter;fontSource=https://fonts.googleapis.com/css?family=Architects+Daughter;" vertex="1" parent="sZa0EjRp5ej5X9bCO8AT-132">
          <mxGeometry x="383.5" y="200" width="50" height="20" as="geometry" />
        </mxCell>
        <mxCell id="sZa0EjRp5ej5X9bCO8AT-211" value="&lt;font size=&quot;1&quot; face=&quot;Comic Sans MS&quot; color=&quot;#000000&quot;&gt;&lt;b style=&quot;font-size: 14px;&quot;&gt;V&lt;/b&gt;&lt;/font&gt;" style="text;strokeColor=none;align=center;fillColor=none;html=1;verticalAlign=middle;whiteSpace=wrap;rounded=0;fontFamily=Architects Daughter;fontSource=https://fonts.googleapis.com/css?family=Architects+Daughter;" vertex="1" parent="sZa0EjRp5ej5X9bCO8AT-132">
          <mxGeometry x="174.5" y="201" width="50" height="20" as="geometry" />
        </mxCell>
        <mxCell id="sZa0EjRp5ej5X9bCO8AT-212" value="&lt;font size=&quot;1&quot; face=&quot;Comic Sans MS&quot; color=&quot;#000000&quot;&gt;&lt;b style=&quot;font-size: 14px;&quot;&gt;V&lt;/b&gt;&lt;/font&gt;" style="text;strokeColor=none;align=center;fillColor=none;html=1;verticalAlign=middle;whiteSpace=wrap;rounded=0;fontFamily=Architects Daughter;fontSource=https://fonts.googleapis.com/css?family=Architects+Daughter;" vertex="1" parent="sZa0EjRp5ej5X9bCO8AT-132">
          <mxGeometry x="301.5" y="300" width="50" height="20" as="geometry" />
        </mxCell>
        <mxCell id="sZa0EjRp5ej5X9bCO8AT-214" value="" style="group;aspect=fixed;" vertex="1" connectable="0" parent="sZa0EjRp5ej5X9bCO8AT-204">
          <mxGeometry x="169.5" width="196" height="990" as="geometry" />
        </mxCell>
        <mxCell id="sZa0EjRp5ej5X9bCO8AT-6" value="" style="group;aspect=fixed;" vertex="1" connectable="0" parent="sZa0EjRp5ej5X9bCO8AT-214">
          <mxGeometry x="68" width="60" height="50" as="geometry" />
        </mxCell>
        <mxCell id="sZa0EjRp5ej5X9bCO8AT-2" value="" style="strokeWidth=2;html=1;shape=mxgraph.flowchart.start_2;whiteSpace=wrap;rounded=0;labelBackgroundColor=none;strokeColor=#000000;align=center;verticalAlign=middle;fontFamily=Helvetica;fontSize=12;fontColor=default;fillColor=#d5e8d4;" vertex="1" parent="sZa0EjRp5ej5X9bCO8AT-6">
          <mxGeometry x="5" width="50" height="50" as="geometry" />
        </mxCell>
        <mxCell id="sZa0EjRp5ej5X9bCO8AT-4" value="&lt;b&gt;&lt;font color=&quot;#000000&quot; style=&quot;font-size: 21px;&quot; face=&quot;Comic Sans MS&quot;&gt;I&lt;/font&gt;&lt;/b&gt;" style="text;strokeColor=none;align=center;fillColor=none;html=1;verticalAlign=middle;whiteSpace=wrap;rounded=0;fontFamily=Architects Daughter;fontSource=https%3A%2F%2Ffonts.googleapis.com%2Fcss%3Ffamily%3DArchitects%2BDaughter;" vertex="1" parent="sZa0EjRp5ej5X9bCO8AT-6">
          <mxGeometry y="10" width="60" height="30" as="geometry" />
        </mxCell>
        <mxCell id="sZa0EjRp5ej5X9bCO8AT-7" value="" style="group;aspect=fixed;" vertex="1" connectable="0" parent="sZa0EjRp5ej5X9bCO8AT-214">
          <mxGeometry x="68" y="940" width="60" height="50" as="geometry" />
        </mxCell>
        <mxCell id="sZa0EjRp5ej5X9bCO8AT-3" value="" style="strokeWidth=2;html=1;shape=mxgraph.flowchart.start_2;whiteSpace=wrap;rounded=0;labelBackgroundColor=none;strokeColor=#000000;align=center;verticalAlign=middle;fontFamily=Helvetica;fontSize=12;fontColor=default;fillColor=#d5e8d4;" vertex="1" parent="sZa0EjRp5ej5X9bCO8AT-7">
          <mxGeometry x="5" width="50" height="50" as="geometry" />
        </mxCell>
        <mxCell id="sZa0EjRp5ej5X9bCO8AT-5" value="&lt;b&gt;&lt;font color=&quot;#000000&quot; style=&quot;font-size: 21px;&quot; face=&quot;Comic Sans MS&quot;&gt;F&lt;/font&gt;&lt;/b&gt;" style="text;strokeColor=none;align=center;fillColor=none;html=1;verticalAlign=middle;whiteSpace=wrap;rounded=0;fontFamily=Architects Daughter;fontSource=https://fonts.googleapis.com/css?family=Architects+Daughter;" vertex="1" parent="sZa0EjRp5ej5X9bCO8AT-7">
          <mxGeometry y="10" width="60" height="30" as="geometry" />
        </mxCell>
        <mxCell id="sZa0EjRp5ej5X9bCO8AT-10" value="" style="group;aspect=fixed;" vertex="1" connectable="0" parent="sZa0EjRp5ej5X9bCO8AT-214">
          <mxGeometry y="80" width="196" height="50" as="geometry" />
        </mxCell>
        <mxCell id="sZa0EjRp5ej5X9bCO8AT-8" value="" style="rounded=0;whiteSpace=wrap;html=1;labelBackgroundColor=none;strokeColor=#0f100e;strokeWidth=2;align=center;verticalAlign=middle;fontFamily=Helvetica;fontSize=12;fontColor=default;fillColor=#d5e8d4;" vertex="1" parent="sZa0EjRp5ej5X9bCO8AT-10">
          <mxGeometry width="196" height="50" as="geometry" />
        </mxCell>
        <mxCell id="sZa0EjRp5ej5X9bCO8AT-9" value="&lt;b&gt;&lt;font style=&quot;font-size: 15px;&quot; color=&quot;#000000&quot; face=&quot;Comic Sans MS&quot;&gt;int num, maximo, minimo&lt;/font&gt;&lt;/b&gt;&lt;div&gt;&lt;b&gt;&lt;font style=&quot;font-size: 15px;&quot; color=&quot;#000000&quot; face=&quot;Comic Sans MS&quot;&gt;bool bandera = true&lt;/font&gt;&lt;/b&gt;&lt;/div&gt;" style="text;strokeColor=none;align=center;fillColor=none;html=1;verticalAlign=middle;whiteSpace=wrap;rounded=0;fontFamily=Architects Daughter;fontSource=https%3A%2F%2Ffonts.googleapis.com%2Fcss%3Ffamily%3DArchitects%2BDaughter;" vertex="1" parent="sZa0EjRp5ej5X9bCO8AT-10">
          <mxGeometry x="2" y="4" width="190" height="40" as="geometry" />
        </mxCell>
        <mxCell id="sZa0EjRp5ej5X9bCO8AT-46" value="" style="line;strokeWidth=2;direction=south;html=1;hachureGap=4;fontFamily=Architects Daughter;fontSource=https://fonts.googleapis.com/css?family=Architects+Daughter;strokeColor=#000000;" vertex="1" parent="sZa0EjRp5ej5X9bCO8AT-10">
          <mxGeometry x="93" y="-30" width="10" height="30" as="geometry" />
        </mxCell>
        <mxCell id="sZa0EjRp5ej5X9bCO8AT-14" value="" style="group;aspect=fixed;" vertex="1" connectable="0" parent="sZa0EjRp5ej5X9bCO8AT-214">
          <mxGeometry x="33" y="160" width="130" height="40" as="geometry" />
        </mxCell>
        <mxCell id="sZa0EjRp5ej5X9bCO8AT-15" value="" style="shape=trapezoid;perimeter=trapezoidPerimeter;whiteSpace=wrap;html=1;fixedSize=1;rounded=0;labelBackgroundColor=none;strokeColor=#121211;strokeWidth=2;align=center;verticalAlign=middle;fontFamily=Helvetica;fontSize=12;fontColor=default;fillColor=#d5e8d4;direction=west;container=0;" vertex="1" parent="sZa0EjRp5ej5X9bCO8AT-14">
          <mxGeometry width="130" height="40" as="geometry">
            <mxRectangle x="-1020" y="-650" width="50" height="40" as="alternateBounds" />
          </mxGeometry>
        </mxCell>
        <mxCell id="sZa0EjRp5ej5X9bCO8AT-16" value="&lt;b&gt;&lt;font color=&quot;#000000&quot; style=&quot;font-size: 17px;&quot; face=&quot;Comic Sans MS&quot;&gt;num&lt;/font&gt;&lt;/b&gt;" style="text;strokeColor=none;align=center;fillColor=none;html=1;verticalAlign=middle;whiteSpace=wrap;rounded=0;fontFamily=Architects Daughter;fontSource=https://fonts.googleapis.com/css?family=Architects+Daughter;container=0;" vertex="1" parent="sZa0EjRp5ej5X9bCO8AT-14">
          <mxGeometry x="20" width="90" height="40" as="geometry" />
        </mxCell>
        <mxCell id="sZa0EjRp5ej5X9bCO8AT-53" value="" style="line;strokeWidth=2;direction=south;html=1;hachureGap=4;fontFamily=Architects Daughter;fontSource=https://fonts.googleapis.com/css?family=Architects+Daughter;strokeColor=#000000;" vertex="1" parent="sZa0EjRp5ej5X9bCO8AT-14">
          <mxGeometry x="60" y="-30" width="10" height="30" as="geometry" />
        </mxCell>
        <mxCell id="sZa0EjRp5ej5X9bCO8AT-133" value="" style="line;strokeWidth=2;direction=south;html=1;hachureGap=4;fontFamily=Architects Daughter;fontSource=https://fonts.googleapis.com/css?family=Architects+Daughter;strokeColor=#000000;" vertex="1" parent="sZa0EjRp5ej5X9bCO8AT-214">
          <mxGeometry x="93" y="900" width="10" height="40" as="geometry" />
        </mxCell>
        <mxCell id="sZa0EjRp5ej5X9bCO8AT-200" value="" style="line;strokeWidth=2;direction=south;html=1;hachureGap=4;fontFamily=Architects Daughter;fontSource=https://fonts.googleapis.com/css?family=Architects+Daughter;strokeColor=#000000;" vertex="1" parent="sZa0EjRp5ej5X9bCO8AT-214">
          <mxGeometry x="93" y="820" width="10" height="50" as="geometry" />
        </mxCell>
        <mxCell id="sZa0EjRp5ej5X9bCO8AT-203" value="" style="group;aspect=fixed;" vertex="1" connectable="0" parent="sZa0EjRp5ej5X9bCO8AT-214">
          <mxGeometry y="860" width="190" height="40" as="geometry" />
        </mxCell>
        <mxCell id="sZa0EjRp5ej5X9bCO8AT-201" value="" style="shape=trapezoid;perimeter=trapezoidPerimeter;whiteSpace=wrap;html=1;fixedSize=1;rounded=0;labelBackgroundColor=none;strokeColor=#0F140C;strokeWidth=2;align=center;verticalAlign=middle;fontFamily=Helvetica;fontSize=12;fontColor=default;fillColor=#d5e8d4;" vertex="1" parent="sZa0EjRp5ej5X9bCO8AT-203">
          <mxGeometry width="190" height="40" as="geometry" />
        </mxCell>
        <mxCell id="sZa0EjRp5ej5X9bCO8AT-202" value="&lt;font size=&quot;1&quot; face=&quot;Comic Sans MS&quot; color=&quot;#000000&quot;&gt;&lt;b style=&quot;font-size: 17px;&quot;&gt;maximo, minimo&lt;/b&gt;&lt;/font&gt;" style="text;strokeColor=none;align=center;fillColor=none;html=1;verticalAlign=middle;whiteSpace=wrap;rounded=0;fontFamily=Architects Daughter;fontSource=https://fonts.googleapis.com/css?family=Architects+Daughter;" vertex="1" parent="sZa0EjRp5ej5X9bCO8AT-203">
          <mxGeometry x="23" y="10" width="150" height="20" as="geometry" />
        </mxCell>
      </root>
    </mxGraphModel>
  </diagram>
</mxfile>
